<?xml version="1.0" standalone="no"?>
<!DOCTYPE svg PUBLIC "-//W3C//DTD SVG 20010904//EN"
 "http://www.w3.org/TR/2001/REC-SVG-20010904/DTD/svg10.dtd">
<svg version="1.0" xmlns="http://www.w3.org/2000/svg"
 width="959.000000pt" height="959.000000pt" viewBox="0 0 959.000000 959.000000"
 preserveAspectRatio="xMidYMid meet">
<metadata>
Created by potrace 1.14, written by Peter Selinger 2001-2017
</metadata>
<g transform="translate(0.000000,959.000000) scale(0.100000,-0.100000)"
fill="#000000" stroke="none">
<path d="M4570 9584 c-222 -8 -534 -49 -740 -95 -105 -24 -140 -33 -240 -61
-831 -234 -1486 -723 -1896 -1414 -270 -457 -428 -983 -489 -1634 -14 -148
-22 -809 -10 -863 2 -12 9 -86 15 -164 l10 -142 -56 -53 c-162 -153 -291 -444
-340 -765 -19 -126 -18 -385 1 -483 59 -303 200 -547 462 -801 197 -191 404
-316 660 -398 38 -12 43 -18 49 -50 27 -158 124 -485 191 -639 19 -46 32 -87
27 -91 -5 -4 -58 -29 -119 -56 -60 -26 -137 -60 -170 -75 -33 -15 -249 -112
-480 -215 -231 -103 -469 -210 -530 -238 -60 -27 -150 -67 -200 -89 -49 -22
-108 -48 -130 -58 -259 -116 -545 -244 -562 -251 l-23 -9 0 -470 0 -470 4795
0 4795 0 0 388 0 389 -112 53 c-62 29 -178 85 -258 123 -80 38 -176 84 -215
102 -38 18 -126 60 -195 93 -69 33 -168 80 -220 105 -52 24 -144 68 -205 97
-60 29 -150 72 -200 95 -49 24 -148 71 -220 105 -71 34 -166 79 -210 100 -279
131 -416 200 -412 207 25 42 101 233 139 348 35 109 93 332 102 397 7 50 17
62 56 72 55 16 189 72 260 109 234 123 459 333 629 587 120 180 187 330 227
515 27 120 24 402 -5 550 -59 297 -179 552 -338 716 l-64 67 12 123 c15 163
16 787 1 954 -37 400 -95 705 -191 1015 -327 1056 -1056 1782 -2111 2102 -255
77 -479 120 -825 157 -97 11 -525 20 -665 15z m-1441 -1457 c12 5 41 -8 41
-18 0 -6 -9 -4 -21 4 -12 9 -33 13 -50 10 -16 -2 -29 0 -29 6 0 6 8 7 18 4 15
-6 16 -5 2 13 -14 18 -13 18 9 -1 13 -11 26 -19 30 -18z m-76 0 c4 3 7 4 7 0
0 -17 -20 -14 -36 6 -19 22 -19 22 2 4 11 -9 24 -14 27 -10z m153 1 c3 -4 -1
-5 -10 -4 -8 1 -18 5 -22 8 -3 4 1 5 10 4 8 -1 18 -5 22 -8z m-186 -19 c0 -4
-10 -6 -21 -4 -32 6 -34 13 -4 13 14 0 25 -4 25 -9z m-40 -21 c0 -6 -6 -5 -15
2 -8 7 -15 14 -15 16 0 2 7 1 15 -2 8 -4 15 -11 15 -16z m232 7 c2 3 12 -3 21
-13 48 -51 56 -62 48 -62 -5 0 -21 16 -35 35 -15 20 -31 33 -36 30 -4 -2 -14
3 -21 13 -12 15 -12 16 2 5 9 -7 18 -11 21 -8z m-257 -26 c-4 -5 -12 -9 -18
-8 -9 0 -8 2 1 6 6 2 9 10 6 15 -4 7 -2 8 5 4 6 -4 9 -12 6 -17z m-25 -34 c0
-8 -2 -15 -4 -15 -2 0 -6 7 -10 15 -3 8 -1 15 4 15 6 0 10 -7 10 -15z m-17
-19 c6 -15 -17 -16 -30 -1 -4 4 -2 5 5 1 6 -4 12 -2 12 3 0 15 7 14 13 -3z
m397 -6 c0 -5 -5 -10 -11 -10 -5 0 -7 5 -4 10 3 6 8 10 11 10 2 0 4 -4 4 -10z
m16 -25 c-3 -9 4 -20 18 -27 22 -12 23 -14 8 -28 -14 -13 -15 -12 -9 3 3 9 3
17 -1 17 -18 1 -32 18 -26 33 3 9 8 17 11 17 3 0 3 -7 -1 -15z m-441 -24 c3
-5 2 -12 -3 -15 -5 -3 -9 1 -9 9 0 17 3 19 12 6z m3996 -24 c-10 -9 -11 -8 -5
6 3 10 9 15 12 12 3 -3 0 -11 -7 -18z m-4013 -22 c-3 -3 -9 2 -12 12 -6 14 -5
15 5 6 7 -7 10 -15 7 -18z m4062 15 c0 -5 -2 -10 -4 -10 -3 0 -8 5 -11 10 -3
6 -1 10 4 10 6 0 11 -4 11 -10z m21 -17 c-12 -20 -14 -14 -5 12 4 9 9 14 11
11 3 -2 0 -13 -6 -23z m36 9 c0 -10 -7 -19 -13 -19 -9 0 -10 5 -3 19 5 10 12
18 14 18 2 0 3 -8 2 -18z m-3608 -6 c9 -11 9 -16 -1 -22 -7 -4 -10 -4 -6 1 4
4 3 14 -3 22 -6 7 -9 13 -6 13 2 0 10 -6 16 -14z m3549 -12 c1 0 -11 -1 -28
-2 -16 0 -32 3 -35 8 -3 4 5 6 17 2 16 -4 19 -2 13 9 -7 11 -5 11 11 -1 10 -8
20 -15 22 -16z m94 12 c7 4 8 2 4 -4 -11 -18 -26 -14 -25 6 0 10 3 12 6 4 2
-6 10 -9 15 -6z m-4179 -33 c-9 -7 -14 -13 -10 -13 4 0 2 -10 -5 -22 -7 -13
-12 -27 -13 -32 0 -5 -7 -11 -15 -13 -10 -3 -11 -2 -4 4 6 4 10 16 8 26 -1 9
2 15 7 11 8 -5 13 9 10 29 -1 4 5 10 13 13 8 3 12 13 9 22 -4 15 -3 15 6 2 8
-11 7 -18 -6 -27z m3981 26 c-2 -4 6 -10 18 -12 22 -4 22 -4 2 -6 -12 0 -27 5
-33 12 -8 10 -7 14 4 14 8 0 12 -4 9 -8z m251 -18 c12 -15 14 -21 5 -15 -15 9
-20 10 -40 13 -7 1 -6 7 2 15 7 8 13 13 13 12 0 0 9 -12 20 -25z m45 25 c0 -2
-8 -10 -17 -17 -16 -13 -17 -12 -4 4 13 16 21 21 21 13z m-3700 -20 c0 -2 -7
-7 -16 -10 -8 -3 -12 -2 -9 4 6 10 25 14 25 6z m3390 -12 c0 -2 -7 -4 -15 -4
-8 0 -15 4 -15 10 0 5 7 7 15 4 8 -4 15 -8 15 -10z m-3350 2 c0 -2 -7 -6 -15
-10 -8 -3 -15 -1 -15 4 0 6 7 10 15 10 8 0 15 -2 15 -4z m3310 -16 c0 -5 -7
-7 -15 -4 -8 4 -15 8 -15 10 0 2 7 4 15 4 8 0 15 -4 15 -10z m367 -5 c0 -7 -6
-12 -13 -12 -7 0 -15 5 -17 12 -3 6 3 11 12 11 10 0 18 -5 18 -11z m-3624 -15
c10 -12 9 -12 -4 -2 -9 6 -18 9 -21 6 -3 -3 -9 -1 -12 4 -9 15 22 8 37 -8z
m3237 3 c0 -3 -7 -3 -15 1 -8 3 -19 -2 -24 -12 -8 -14 -11 -14 -11 -2 0 12 -4
11 -15 -4 -8 -11 -25 -21 -37 -23 -18 -2 -20 -1 -8 6 8 5 18 7 22 5 7 -5 12
10 9 28 0 4 8 5 19 3 11 -2 22 0 25 5 6 9 35 3 35 -7z m-3200 -7 c0 -3 -4 -8
-10 -11 -5 -3 -10 -1 -10 4 0 6 5 11 10 11 6 0 10 -2 10 -4z m3625 -27 c-4 -5
-12 -9 -18 -8 -9 0 -8 2 1 6 6 2 9 10 6 15 -4 7 -2 8 5 4 6 -4 9 -12 6 -17z
m-3560 -16 c4 -11 0 -11 -18 -2 -31 16 -32 18 -8 16 11 -1 23 -7 26 -14z m35
13 c0 -3 -4 -8 -10 -11 -5 -3 -10 -1 -10 4 0 6 5 11 10 11 6 0 10 -2 10 -4z
m2952 -25 c8 11 9 11 6 1 -4 -16 -22 -18 -25 -2 -1 7 0 6 4 -1 4 -8 8 -7 15 2z
m586 -3 c-2 -7 2 -12 7 -11 6 1 12 -7 12 -18 1 -10 -3 -19 -8 -19 -6 0 -8 4
-5 9 3 5 -1 14 -9 21 -17 14 -20 30 -5 30 6 0 9 -6 8 -12z m-4394 -7 c3 -5 -1
-14 -8 -20 -12 -10 -14 -9 -11 6 2 10 4 19 4 21 2 5 10 2 15 -7z m893 -4 c0
-8 -6 -14 -13 -14 -7 0 -10 6 -7 14 3 7 8 13 12 13 4 0 8 -6 8 -13z m20 -29
c-3 -8 -6 -5 -6 6 -1 11 2 17 5 13 3 -3 4 -12 1 -19z m38 1 c-4 -5 -12 -9 -18
-8 -9 0 -8 2 1 6 6 2 9 10 6 15 -4 7 -2 8 5 4 6 -4 9 -12 6 -17z m2815 1 c-20
-13 -33 -13 -25 0 3 6 14 10 23 10 15 0 15 -2 2 -10z m-50 -10 c-12 -8 -12
-10 -1 -10 8 0 12 -3 8 -6 -9 -9 -28 6 -22 17 4 5 12 9 18 9 7 0 6 -4 -3 -10z
m-3730 -4 c0 -3 -5 -17 -12 -33 -6 -15 -11 -31 -10 -35 1 -5 -2 -8 -8 -8 -13
0 -13 6 5 40 11 22 12 30 2 33 -7 3 -5 6 6 6 9 1 17 -1 17 -3z m1010 -10 c0
-3 -4 -8 -10 -11 -5 -3 -10 -1 -10 4 0 6 5 11 10 11 6 0 10 -2 10 -4z m2693
-15 c-4 -3 -11 -10 -15 -15 -4 -4 -6 1 -5 12 1 12 6 18 15 15 7 -3 10 -9 5
-12z m-2673 -1 c0 -5 -5 -10 -11 -10 -5 0 -7 5 -4 10 3 6 8 10 11 10 2 0 4 -4
4 -10z m43 -14 c4 -10 0 -12 -15 -8 -15 4 -17 7 -6 13 17 11 15 11 21 -5z m47
-11 c0 -2 -6 -5 -13 -8 -8 -3 -14 1 -14 8 0 7 6 11 14 8 7 -3 13 -6 13 -8z
m2550 5 c0 -5 -7 -7 -15 -4 -8 4 -15 8 -15 10 0 2 7 4 15 4 8 0 15 -4 15 -10z
m-2525 -17 c-2 -10 -4 -19 -4 -21 -1 -2 -6 0 -11 3 -8 5 -7 11 1 21 15 18 18
18 14 -3z m2492 9 c8 -5 2 -13 -16 -24 -19 -10 -33 -13 -42 -6 -12 7 -11 8 1
7 8 -1 24 2 34 6 19 8 19 9 0 16 -13 5 -14 8 -4 8 8 0 20 -3 27 -7z m-2414
-39 c-5 -13 14 -12 36 1 9 6 12 5 7 -2 -9 -15 23 -30 56 -27 22 3 25 1 15 -10
-7 -8 -16 -10 -23 -4 -6 5 -14 6 -17 2 -4 -3 -13 0 -22 7 -8 7 -15 9 -15 5 0
-4 -6 -2 -13 4 -8 6 -17 8 -20 4 -4 -3 -9 1 -12 10 -4 9 -16 14 -31 12 -13 -1
-24 1 -24 6 0 4 15 7 34 6 21 -1 32 -6 29 -14z m2341 -15 c-9 -14 -23 2 -17
18 4 12 8 13 14 3 4 -7 5 -17 3 -21z m-3601 1 c-6 -6 -9 -19 -5 -27 5 -14 4
-15 -10 -2 -14 13 -14 16 1 27 20 16 29 17 14 2z m3571 -6 c4 -10 4 -14 0 -10
-4 4 -19 -3 -32 -15 -14 -13 -22 -18 -19 -11 4 6 4 13 0 16 -5 2 -2 2 5 1 7
-2 18 5 24 16 15 24 14 24 22 3z m-3590 -39 c3 -8 2 -12 -4 -9 -6 3 -10 10
-10 16 0 14 7 11 14 -7z m1483 -17 c3 1 9 6 12 12 4 6 12 2 20 -10 10 -17 10
-20 -1 -13 -7 5 -20 7 -30 6 -9 -2 -19 2 -22 7 -4 6 -13 8 -20 5 -8 -3 -17 -1
-21 5 -4 7 0 8 11 4 13 -5 15 -3 9 8 -5 8 2 5 14 -6 13 -11 25 -19 28 -18z
m2038 24 c3 -5 2 -12 -3 -15 -5 -3 -9 1 -9 9 0 17 3 19 12 6z m-3525 -41 c0
-5 -10 -14 -22 -20 -22 -10 -22 -10 -4 4 10 8 15 20 10 27 -4 8 -3 10 4 5 7
-4 12 -11 12 -16z m3475 2 c-3 -3 -11 0 -18 7 -9 10 -8 11 6 5 10 -3 15 -9 12
-12z m-1871 -4 c-6 -10 10 -11 20 -1 3 4 14 8 22 9 9 1 13 0 10 -3 -3 -4 -1
-12 5 -20 9 -9 8 -13 0 -13 -6 0 -11 4 -11 8 0 5 -16 8 -35 7 -19 -2 -32 1
-29 6 3 6 -6 8 -20 5 -14 -3 -26 -1 -26 3 0 5 15 8 34 8 19 -1 32 -5 30 -9z
m87 -20 c-10 -11 -11 -9 -5 6 6 15 4 17 -6 11 -9 -6 -11 -4 -5 4 5 9 10 10 18
2 8 -8 7 -14 -2 -23z m64 1 c6 -3 19 -4 31 -4 12 1 21 -4 21 -11 0 -8 -4 -14
-9 -14 -4 0 -8 5 -8 11 0 6 -9 8 -20 4 -12 -4 -20 -2 -20 6 0 8 -3 9 -13 0
-14 -11 -27 -6 -27 11 0 8 27 7 45 -3z m130 1 c-3 -5 -2 -10 3 -10 5 0 9 -6 9
-13 0 -8 -6 -14 -12 -14 -6 0 -10 10 -9 21 3 26 3 26 10 26 3 0 2 -4 -1 -10z
m1525 0 c0 -5 -5 -10 -11 -10 -5 0 -7 5 -4 10 3 6 8 10 11 10 2 0 4 -4 4 -10z
m-3430 -40 c-11 -21 -21 -53 -22 -77 -1 -6 -8 -8 -17 -5 -10 4 -11 7 -3 10 7
2 10 8 6 13 -3 5 -1 9 5 9 5 0 8 11 7 25 -2 15 1 22 7 18 6 -4 8 0 4 11 -4 10
-3 15 3 11 6 -3 10 -1 10 6 0 7 3 10 6 7 3 -4 0 -16 -6 -28z m1880 18 c0 -3
-9 -6 -20 -5 -11 1 -20 5 -20 9 0 3 9 6 20 5 11 -1 20 -5 20 -9z m101 -8 c6 0
7 6 3 13 -4 6 -4 9 0 5 15 -13 6 -23 -24 -24 -16 -1 -30 3 -30 8 0 5 4 7 9 3
5 -3 13 0 17 7 6 9 9 9 12 0 2 -7 8 -12 13 -12z m56 -5 c-7 -17 -27 -21 -27
-4 0 5 5 7 10 4 6 -3 10 2 10 11 0 10 3 15 6 11 4 -3 4 -13 1 -22z m117 13
c-3 -4 -9 -8 -15 -8 -5 0 -9 4 -9 8 0 5 7 9 15 9 8 0 12 -4 9 -9z m73 -15 c0
-16 -2 -22 -4 -16 -4 10 -10 10 -25 2 -16 -9 -19 -8 -13 2 6 9 3 11 -8 6 -10
-3 -17 -2 -17 3 0 5 12 9 27 8 14 -2 28 3 31 10 6 19 10 14 9 -15z m241 15
c-2 -7 2 -12 8 -11 6 1 11 -5 11 -13 0 -7 -2 -12 -5 -9 -3 2 -13 0 -23 -6 -11
-5 -19 -6 -19 -1 0 5 -34 8 -75 6 -64 -2 -75 1 -75 15 0 9 3 12 8 6 11 -16 44
-18 53 -3 6 8 9 9 9 1 0 -6 8 -10 18 -8 9 1 16 8 14 16 -2 9 1 9 14 -1 9 -8
28 -16 42 -18 21 -3 23 -1 14 11 -7 8 -9 17 -5 20 10 10 13 8 11 -5z m-365
-11 c4 3 13 1 20 -5 8 -7 18 -8 22 -4 5 4 5 1 1 -6 -5 -8 -13 -9 -24 -4 -9 5
-29 8 -44 7 -16 -1 -28 2 -28 6 0 12 24 17 36 8 6 -5 14 -6 17 -2z m176 -24
c2 -1 -5 -1 -16 0 -11 0 -20 7 -20 14 0 10 4 10 16 1 9 -7 18 -13 20 -15z
m671 17 c0 -5 -2 -10 -4 -10 -3 0 -8 5 -11 10 -3 6 -1 10 4 10 6 0 11 -4 11
-10z m21 -17 c-12 -20 -14 -14 -5 12 4 9 9 14 11 11 3 -2 0 -13 -6 -23z m120
4 c-10 -9 -11 -8 -5 6 3 10 9 15 12 12 3 -3 0 -11 -7 -18z m56 11 c6 16 20 15
20 -2 0 -7 -9 -12 -21 -11 -12 0 -27 -4 -35 -9 -12 -9 -12 -7 -2 13 11 19 15
21 23 10 7 -11 11 -11 15 -1z m-597 -10 c0 16 53 7 58 -9 2 -9 0 -10 -5 -4 -9
12 -33 13 -50 2 -6 -4 -14 -3 -18 2 -3 6 -13 8 -23 5 -14 -5 -14 -4 -2 4 10 8
18 8 27 0 9 -7 13 -7 13 0z m115 2 c5 8 10 8 20 0 10 -8 15 -8 20 0 5 8 11 8
21 -1 9 -7 19 -8 27 -2 18 13 80 10 83 -5 2 -8 0 -8 -3 -1 -4 8 -8 7 -14 -2
-6 -10 -9 -11 -9 -1 0 6 -5 12 -11 12 -5 0 -8 -3 -5 -8 3 -6 -158 -9 -172 -3
-2 0 0 6 3 11 5 8 11 8 20 0 10 -8 15 -8 20 0z m271 -9 c19 -11 19 -11 -1 -9
-11 2 -23 8 -27 13 -5 7 -10 7 -15 0 -5 -5 -17 -11 -28 -12 -11 -1 -14 0 -6 4
11 4 11 7 0 14 -8 4 1 7 22 5 19 -2 44 -8 55 -15z m68 4 c-4 -8 -8 -15 -10
-15 -2 0 -4 7 -4 15 0 8 4 15 10 15 5 0 7 -7 4 -15z m46 -4 c0 -4 -10 -7 -22
-8 -13 0 -17 1 -10 4 6 3 10 9 7 14 -4 5 1 6 9 3 9 -3 16 -9 16 -13z m-3080
-94 c0 -7 -4 -6 -10 3 -5 8 -10 10 -10 4 0 -7 -8 -15 -17 -18 -15 -6 -15 -5 1
13 19 21 36 20 36 -2z m-22 -62 c-3 -3 -9 2 -12 12 -6 14 -5 15 5 6 7 -7 10
-15 7 -18z m-25 -41 c-8 -13 -12 -28 -9 -33 4 -5 1 -13 -5 -16 -19 -12 -21 2
-5 34 9 17 16 33 16 36 -1 26 1 29 9 16 6 -9 4 -22 -6 -37z m4674 -40 c-3 -3
-12 -4 -19 -1 -8 3 -5 6 6 6 11 1 17 -2 13 -5z m-4707 -29 c11 -13 10 -14 -4
-9 -9 3 -16 10 -16 15 0 13 6 11 20 -6z m4700 -15 c0 -5 -4 -10 -10 -10 -5 0
-10 5 -10 10 0 6 5 10 10 10 6 0 10 -4 10 -10z m-4706 -8 c3 -5 -1 -9 -9 -9
-8 0 -12 4 -9 9 3 4 7 8 9 8 2 0 6 -4 9 -8z m4706 -21 c0 -6 -4 -12 -8 -15 -5
-3 -9 1 -9 9 0 8 4 15 9 15 4 0 8 -4 8 -9z m-4713 -7 c-3 -3 -12 -4 -19 -1 -8
3 -5 6 6 6 11 1 17 -2 13 -5z m-36 -38 c1 5 1 12 1 15 -1 3 6 6 14 6 12 0 12
-3 -1 -17 -8 -9 -12 -20 -8 -23 3 -4 1 -7 -5 -7 -7 0 -12 5 -12 11 0 5 -4 8
-8 5 -4 -2 -8 4 -8 15 0 19 1 19 13 3 7 -10 14 -14 14 -8z m4760 0 c-6 -7 -8
-16 -4 -19 3 -4 3 -7 0 -7 -3 0 -11 9 -17 20 -9 16 -8 19 6 13 13 -5 15 -3 9
7 -5 9 -4 11 4 6 8 -6 9 -12 2 -20z m-4788 -68 c-20 -20 -21 -20 -19 -2 2 10
9 18 16 16 8 -2 10 3 6 15 -6 15 -5 16 6 5 10 -10 8 -16 -9 -34z m4789 -2 c7
5 8 2 3 -6 -5 -8 -1 -18 11 -28 18 -13 18 -14 -5 -7 -15 5 -21 4 -17 -3 3 -6
3 -13 -1 -15 -5 -3 -8 18 -9 46 0 29 1 42 3 29 3 -13 9 -19 15 -16z m-4812
-36 c-8 -5 -11 -10 -7 -10 5 0 -1 -13 -13 -30 -12 -16 -18 -30 -14 -30 3 0 1
-7 -6 -15 -7 -8 -9 -15 -5 -15 3 0 -3 -12 -14 -26 -11 -14 -19 -31 -17 -37 1
-7 1 -9 -1 -4 -3 4 -8 5 -12 3 -4 -3 -8 1 -8 9 0 8 4 12 8 9 4 -2 10 5 14 16
3 11 11 20 16 20 5 0 8 3 8 8 -1 4 0 9 1 12 3 9 11 45 12 57 1 7 4 11 7 10 3
-1 6 3 6 8 0 6 -4 9 -8 7 -5 -1 -6 1 -4 6 3 4 16 8 29 9 18 2 19 0 8 -7z
m4830 -54 c10 -13 10 -17 3 -12 -7 4 -13 2 -13 -3 0 -19 5 -26 15 -23 5 2 1
-6 -9 -17 -17 -18 -15 -25 5 -23 3 1 6 -5 6 -13 0 -8 -4 -12 -8 -10 -4 3 -9
-2 -13 -10 -3 -8 3 -19 12 -24 10 -6 12 -11 5 -11 -7 0 -13 -5 -13 -11 0 -5 4
-8 8 -5 5 3 9 -1 9 -9 0 -8 -4 -12 -8 -9 -4 2 -10 -2 -12 -8 -3 -7 -4 1 -3 19
2 18 1 35 -2 38 -11 11 -10 110 2 124 9 12 8 13 -8 8 -16 -6 -17 -5 -6 8 7 9
13 14 14 13 1 -2 8 -12 16 -22z m-4895 -15 c3 -5 2 -12 -3 -15 -5 -3 -9 1 -9
9 0 17 3 19 12 6z m-24 -138 c-12 -23 -24 -56 -23 -63 0 -3 -8 -17 -19 -30
-19 -23 -19 -23 -9 -2 6 12 8 22 4 22 -4 0 0 8 8 18 8 9 18 29 22 45 3 15 11
27 16 27 7 0 7 -6 1 -17z m4932 -54 c-12 -12 -6 -42 6 -34 4 2 8 -2 8 -9 0 -7
-6 -13 -14 -13 -7 0 -11 2 -8 5 2 3 -1 14 -6 25 -8 15 -8 22 2 28 20 12 25 11
12 -2z m-4992 -92 c-10 -9 -11 -8 -5 6 3 10 9 15 12 12 3 -3 0 -11 -7 -18z
m5013 17 c12 -5 13 -9 3 -19 -9 -9 -14 -10 -19 -1 -16 23 -10 30 16 20z m2
-53 c-7 -11 18 -33 27 -24 4 3 7 1 7 -5 0 -7 -5 -12 -11 -12 -6 0 -7 -5 -2
-12 12 -20 12 -37 1 -45 -7 -3 -8 -1 -4 5 4 7 1 12 -6 13 -10 0 -11 2 0 6 10
4 10 8 1 19 -6 8 -8 14 -5 14 4 0 0 7 -8 16 -14 14 -14 34 0 34 3 0 3 -4 0 -9z
m-5062 -67 c3 -8 2 -12 -4 -9 -6 3 -10 10 -10 16 0 14 7 11 14 -7z"/>
</g>
</svg>
